<?xml version="1.0" encoding="UTF-8" standalone="no"?><!DOCTYPE svg PUBLIC "-//W3C//DTD SVG 1.1//EN" "http://www.w3.org/Graphics/SVG/1.1/DTD/svg11.dtd"><svg width="100%" height="100%" viewBox="0 0 417 417" version="1.1" xmlns="http://www.w3.org/2000/svg" xmlns:xlink="http://www.w3.org/1999/xlink" xml:space="preserve" xmlns:serif="http://www.serif.com/" style="fill-rule:evenodd;clip-rule:evenodd;stroke-linecap:round;stroke-linejoin:round;stroke-miterlimit:1.5;"><path d="M208.158,34.721c-95.833,0 -173.437,77.779 -173.437,173.612c0,95.834 77.604,173.613 173.437,173.613c96.009,0 173.788,-77.779 173.788,-173.613c0,-95.833 -77.779,-173.612 -173.788,-173.612Z" style="fill:#546e7a;fill-rule:nonzero;"/><path d="M208.158,34.721c-95.833,0 -173.437,77.779 -173.437,173.612c0,95.834 77.604,173.613 173.437,173.613c96.009,0 173.788,-77.779 173.788,-173.613c0,-95.833 -77.779,-173.612 -173.788,-173.612Zm56.079,267.187l-55.904,-33.679l-55.904,33.679c-6.596,3.996 -14.754,-1.908 -13.021,-9.375l14.759,-63.541l-49.134,-42.534c-5.729,-5.033 -2.604,-14.583 5.038,-15.279l64.929,-5.554l25.346,-59.896c2.954,-7.117 13.021,-7.117 15.975,0l25.346,59.721l64.929,5.558c7.642,0.692 10.767,10.242 4.862,15.275l-49.133,42.538l14.758,63.712c1.738,7.467 -6.25,13.371 -12.846,9.375Z" style="fill:#fff;fill-opacity:0;fill-rule:nonzero;"/><g><clipPath id="_clip1"><path d="M208.158,34.721c-95.833,0 -173.437,77.779 -173.437,173.612c0,95.834 77.604,173.613 173.437,173.613c96.009,0 173.788,-77.779 173.788,-173.613c0,-95.833 -77.779,-173.612 -173.788,-173.612Z"/></clipPath><g clip-path="url(#_clip1)"><path d="M159.175,303.177l92.992,106.967l150.346,-117.551l-104.578,-99.294" style="fill-opacity:0.47;"/></g></g><path d="M166.421,110.799l0.607,184.243l123.534,-93.248l-124.141,-90.995Z" style="fill:#fff;stroke:#fff;stroke-width:22.4px;"/></svg>